<svg aria-roledescription="flowchart-v2" role="graphics-document document" viewBox="0 0 730.02734375 1360.984375" height="1360.984375" class="flowchart" xmlns="http://www.w3.org/2000/svg" width="730.02734375" id="diagramacicloplc"><style>#diagramacicloplc{font-family:Segoe UI,Roboto,Helvetica,Arial,sans-serif;font-size:15px;fill:#000000;}#diagramacicloplc .error-icon{fill:#552222;}#diagramacicloplc .error-text{fill:#552222;stroke:#552222;}#diagramacicloplc .edge-thickness-normal{stroke-width:1px;}#diagramacicloplc .edge-thickness-thick{stroke-width:3.5px;}#diagramacicloplc .edge-pattern-solid{stroke-dasharray:0;}#diagramacicloplc .edge-thickness-invisible{stroke-width:0;fill:none;}#diagramacicloplc .edge-pattern-dashed{stroke-dasharray:3;}#diagramacicloplc .edge-pattern-dotted{stroke-dasharray:2;}#diagramacicloplc .marker{fill:#666;stroke:#666;}#diagramacicloplc .marker.cross{stroke:#666;}#diagramacicloplc svg{font-family:Segoe UI,Roboto,Helvetica,Arial,sans-serif;font-size:15px;}#diagramacicloplc p{margin:0;}#diagramacicloplc .label{font-family:Segoe UI,Roboto,Helvetica,Arial,sans-serif;color:#000000;}#diagramacicloplc .cluster-label text{fill:#333;}#diagramacicloplc .cluster-label span{color:#333;}#diagramacicloplc .cluster-label span p{background-color:transparent;}#diagramacicloplc .label text,#diagramacicloplc span{fill:#000000;color:#000000;}#diagramacicloplc .node rect,#diagramacicloplc .node circle,#diagramacicloplc .node ellipse,#diagramacicloplc .node polygon,#diagramacicloplc .node path{fill:#eee;stroke:#999;stroke-width:1px;}#diagramacicloplc .rough-node .label text,#diagramacicloplc .node .label text,#diagramacicloplc .image-shape .label,#diagramacicloplc .icon-shape .label{text-anchor:middle;}#diagramacicloplc .node .katex path{fill:#000;stroke:#000;stroke-width:1px;}#diagramacicloplc .rough-node .label,#diagramacicloplc .node .label,#diagramacicloplc .image-shape .label,#diagramacicloplc .icon-shape .label{text-align:center;}#diagramacicloplc .node.clickable{cursor:pointer;}#diagramacicloplc .root .anchor path{fill:#666!important;stroke-width:0;stroke:#666;}#diagramacicloplc .arrowheadPath{fill:#333333;}#diagramacicloplc .edgePath .path{stroke:#666;stroke-width:2.0px;}#diagramacicloplc .flowchart-link{stroke:#666;fill:none;}#diagramacicloplc .edgeLabel{background-color:white;text-align:center;}#diagramacicloplc .edgeLabel p{background-color:white;}#diagramacicloplc .edgeLabel rect{opacity:0.5;background-color:white;fill:white;}#diagramacicloplc .labelBkg{background-color:rgba(255, 255, 255, 0.5);}#diagramacicloplc .cluster rect{fill:hsl(0, 0%, 98.9215686275%);stroke:#707070;stroke-width:1px;}#diagramacicloplc .cluster text{fill:#333;}#diagramacicloplc .cluster span{color:#333;}#diagramacicloplc div.mermaidTooltip{position:absolute;text-align:center;max-width:200px;padding:2px;font-family:Segoe UI,Roboto,Helvetica,Arial,sans-serif;font-size:12px;background:hsl(-160, 0%, 93.3333333333%);border:1px solid #707070;border-radius:2px;pointer-events:none;z-index:100;}#diagramacicloplc .flowchartTitleText{text-anchor:middle;font-size:18px;fill:#000000;}#diagramacicloplc rect.text{fill:none;stroke-width:0;}#diagramacicloplc .icon-shape,#diagramacicloplc .image-shape{background-color:white;text-align:center;}#diagramacicloplc .icon-shape p,#diagramacicloplc .image-shape p{background-color:white;padding:2px;}#diagramacicloplc .icon-shape rect,#diagramacicloplc .image-shape rect{opacity:0.5;background-color:white;fill:white;}#diagramacicloplc :root{--mermaid-font-family:Segoe UI,Roboto,Helvetica,Arial,sans-serif;}</style><g><marker orient="auto" markerHeight="8" markerWidth="8" markerUnits="userSpaceOnUse" refY="5" refX="5" viewBox="0 0 10 10" class="marker flowchart-v2" id="diagramacicloplc_flowchart-v2-pointEnd"><path style="stroke-width: 1; stroke-dasharray: 1, 0;" class="arrowMarkerPath" d="M 0 0 L 10 5 L 0 10 z"></path></marker><marker orient="auto" markerHeight="8" markerWidth="8" markerUnits="userSpaceOnUse" refY="5" refX="4.5" viewBox="0 0 10 10" class="marker flowchart-v2" id="diagramacicloplc_flowchart-v2-pointStart"><path style="stroke-width: 1; stroke-dasharray: 1, 0;" class="arrowMarkerPath" d="M 0 5 L 10 10 L 10 0 z"></path></marker><marker orient="auto" markerHeight="11" markerWidth="11" markerUnits="userSpaceOnUse" refY="5" refX="11" viewBox="0 0 10 10" class="marker flowchart-v2" id="diagramacicloplc_flowchart-v2-circleEnd"><circle style="stroke-width: 1; stroke-dasharray: 1, 0;" class="arrowMarkerPath" r="5" cy="5" cx="5"></circle></marker><marker orient="auto" markerHeight="11" markerWidth="11" markerUnits="userSpaceOnUse" refY="5" refX="-1" viewBox="0 0 10 10" class="marker flowchart-v2" id="diagramacicloplc_flowchart-v2-circleStart"><circle style="stroke-width: 1; stroke-dasharray: 1, 0;" class="arrowMarkerPath" r="5" cy="5" cx="5"></circle></marker><marker orient="auto" markerHeight="11" markerWidth="11" markerUnits="userSpaceOnUse" refY="5.2" refX="12" viewBox="0 0 11 11" class="marker cross flowchart-v2" id="diagramacicloplc_flowchart-v2-crossEnd"><path style="stroke-width: 2; stroke-dasharray: 1, 0;" class="arrowMarkerPath" d="M 1,1 l 9,9 M 10,1 l -9,9"></path></marker><marker orient="auto" markerHeight="11" markerWidth="11" markerUnits="userSpaceOnUse" refY="5.2" refX="-1" viewBox="0 0 11 11" class="marker cross flowchart-v2" id="diagramacicloplc_flowchart-v2-crossStart"><path style="stroke-width: 2; stroke-dasharray: 1, 0;" class="arrowMarkerPath" d="M 1,1 l 9,9 M 10,1 l -9,9"></path></marker><g class="root"><g class="clusters"></g><g class="edgePaths"><path marker-end="url(#diagramacicloplc_flowchart-v2-pointEnd)" style="" class="edge-thickness-normal edge-pattern-solid edge-thickness-normal edge-pattern-solid flowchart-link" id="L_A_B_0" d="M350.971,60.5L341.309,64.667C331.647,68.833,312.324,77.167,302.662,84.833C293,92.5,293,99.5,293,103L293,106.5"></path><path marker-end="url(#diagramacicloplc_flowchart-v2-pointEnd)" style="" class="edge-thickness-normal edge-pattern-solid edge-thickness-normal edge-pattern-solid flowchart-link" id="L_B_C_1" d="M293,163L293,167.167C293,171.333,293,179.667,293,187.333C293,195,293,202,293,205.5L293,209"></path><path marker-end="url(#diagramacicloplc_flowchart-v2-pointEnd)" style="" class="edge-thickness-normal edge-pattern-solid edge-thickness-normal edge-pattern-solid flowchart-link" id="L_C_D_2" d="M293,265.5L293,269.667C293,273.833,293,282.167,293.07,289.917C293.141,297.667,293.281,304.834,293.351,308.417L293.422,312.001"></path><path marker-end="url(#diagramacicloplc_flowchart-v2-pointEnd)" style="" class="edge-thickness-normal edge-pattern-solid edge-thickness-normal edge-pattern-solid flowchart-link" id="L_D_E_3" d="M231.868,506.853L216.224,523.083C200.579,539.313,169.289,571.774,153.645,593.379C138,614.984,138,625.734,138,631.109L138,636.484"></path><path marker-end="url(#diagramacicloplc_flowchart-v2-pointEnd)" style="" class="edge-thickness-normal edge-pattern-solid edge-thickness-normal edge-pattern-solid flowchart-link" id="L_D_F_4" d="M355.132,506.853L370.61,523.083C386.088,539.313,417.044,571.774,432.522,593.379C448,614.984,448,625.734,448,631.109L448,636.484"></path><path marker-end="url(#diagramacicloplc_flowchart-v2-pointEnd)" style="" class="edge-thickness-normal edge-pattern-solid edge-thickness-normal edge-pattern-solid flowchart-link" id="L_E_G_5" d="M138,737.984L138,742.151C138,746.318,138,754.651,149.969,762.775C161.937,770.899,185.875,778.814,197.843,782.771L209.812,786.729"></path><path marker-end="url(#diagramacicloplc_flowchart-v2-pointEnd)" style="" class="edge-thickness-normal edge-pattern-solid edge-thickness-normal edge-pattern-solid flowchart-link" id="L_F_G_6" d="M448,737.984L448,742.151C448,746.318,448,754.651,436.031,762.775C424.063,770.899,400.125,778.814,388.157,782.771L376.188,786.729"></path><path marker-end="url(#diagramacicloplc_flowchart-v2-pointEnd)" style="" class="edge-thickness-normal edge-pattern-solid edge-thickness-normal edge-pattern-solid flowchart-link" id="L_G_H_7" d="M293,840.484L293,844.651C293,848.818,293,857.151,293,864.818C293,872.484,293,879.484,293,882.984L293,886.484"></path><path marker-end="url(#diagramacicloplc_flowchart-v2-pointEnd)" style="" class="edge-thickness-normal edge-pattern-solid edge-thickness-normal edge-pattern-solid flowchart-link" id="L_H_I_8" d="M293,942.984L293,947.151C293,951.318,293,959.651,293,967.318C293,974.984,293,981.984,293,985.484L293,988.984"></path><path marker-end="url(#diagramacicloplc_flowchart-v2-pointEnd)" style="" class="edge-thickness-normal edge-pattern-solid edge-thickness-normal edge-pattern-solid flowchart-link" id="L_I_J_9" d="M293,1045.484L293,1049.651C293,1053.818,293,1062.151,293,1069.818C293,1077.484,293,1084.484,293,1087.984L293,1091.484"></path><path marker-end="url(#diagramacicloplc_flowchart-v2-pointEnd)" style="" class="edge-thickness-normal edge-pattern-solid edge-thickness-normal edge-pattern-solid flowchart-link" id="L_J_K_10" d="M293,1147.984L293,1152.151C293,1156.318,293,1164.651,293,1172.318C293,1179.984,293,1186.984,293,1190.484L293,1193.984"></path><path marker-end="url(#diagramacicloplc_flowchart-v2-pointEnd)" style="" class="edge-thickness-normal edge-pattern-solid edge-thickness-normal edge-pattern-solid flowchart-link" id="L_K_L_11" d="M293,1250.484L293,1254.651C293,1258.818,293,1267.151,302.05,1275.22C311.099,1283.29,329.198,1291.095,338.248,1294.998L347.298,1298.9"></path><path marker-end="url(#diagramacicloplc_flowchart-v2-pointEnd)" style="" class="edge-thickness-normal edge-pattern-solid edge-thickness-normal edge-pattern-solid flowchart-link" id="L_L_A_12" d="M533.486,1300.484L552.795,1296.318C572.104,1292.151,610.722,1283.818,630.031,1271.109C649.34,1258.401,649.34,1241.318,649.34,1224.234C649.34,1207.151,649.34,1190.068,649.34,1172.984C649.34,1155.901,649.34,1138.818,649.34,1121.734C649.34,1104.651,649.34,1087.568,649.34,1070.484C649.34,1053.401,649.34,1036.318,649.34,1019.234C649.34,1002.151,649.34,985.068,649.34,967.984C649.34,950.901,649.34,933.818,649.34,916.734C649.34,899.651,649.34,882.568,649.34,865.484C649.34,848.401,649.34,831.318,649.34,814.234C649.34,797.151,649.34,780.068,649.34,759.234C649.34,738.401,649.34,713.818,649.34,687.359C649.34,660.901,649.34,632.568,649.34,591.319C649.34,550.07,649.34,495.906,649.34,443.617C649.34,391.328,649.34,340.914,649.34,307.165C649.34,273.417,649.34,256.333,649.34,239.25C649.34,222.167,649.34,205.083,649.34,188C649.34,170.917,649.34,153.833,649.34,136.75C649.34,119.667,649.34,102.583,630.683,90.016C612.025,77.448,574.711,69.396,556.053,65.37L537.396,61.344"></path></g><g class="edgeLabels"><g class="edgeLabel"><g transform="translate(0, 0)" class="label"><foreignObject height="0" width="0"><div style="display: table-cell; white-space: nowrap; line-height: 1.5; max-width: 200px; text-align: center;" class="labelBkg" xmlns="http://www.w3.org/1999/xhtml"><span class="edgeLabel"></span></div></foreignObject></g></g><g class="edgeLabel"><g transform="translate(0, 0)" class="label"><foreignObject height="0" width="0"><div style="display: table-cell; white-space: nowrap; line-height: 1.5; max-width: 200px; text-align: center;" class="labelBkg" xmlns="http://www.w3.org/1999/xhtml"><span class="edgeLabel"></span></div></foreignObject></g></g><g class="edgeLabel"><g transform="translate(0, 0)" class="label"><foreignObject height="0" width="0"><div style="display: table-cell; white-space: nowrap; line-height: 1.5; max-width: 200px; text-align: center;" class="labelBkg" xmlns="http://www.w3.org/1999/xhtml"><span class="edgeLabel"></span></div></foreignObject></g></g><g transform="translate(138, 604.234375)" class="edgeLabel"><g transform="translate(-5.78125, -11.25)" class="label"><foreignObject height="22.5" width="11.5625"><div style="display: table-cell; white-space: nowrap; line-height: 1.5; max-width: 200px; text-align: center;" class="labelBkg" xmlns="http://www.w3.org/1999/xhtml"><span class="edgeLabel"><p>sí</p></span></div></foreignObject></g></g><g transform="translate(448, 604.234375)" class="edgeLabel"><g transform="translate(-8.9296875, -11.25)" class="label"><foreignObject height="22.5" width="17.859375"><div style="display: table-cell; white-space: nowrap; line-height: 1.5; max-width: 200px; text-align: center;" class="labelBkg" xmlns="http://www.w3.org/1999/xhtml"><span class="edgeLabel"><p>no</p></span></div></foreignObject></g></g><g class="edgeLabel"><g transform="translate(0, 0)" class="label"><foreignObject height="0" width="0"><div style="display: table-cell; white-space: nowrap; line-height: 1.5; max-width: 200px; text-align: center;" class="labelBkg" xmlns="http://www.w3.org/1999/xhtml"><span class="edgeLabel"></span></div></foreignObject></g></g><g class="edgeLabel"><g transform="translate(0, 0)" class="label"><foreignObject height="0" width="0"><div style="display: table-cell; white-space: nowrap; line-height: 1.5; max-width: 200px; text-align: center;" class="labelBkg" xmlns="http://www.w3.org/1999/xhtml"><span class="edgeLabel"></span></div></foreignObject></g></g><g class="edgeLabel"><g transform="translate(0, 0)" class="label"><foreignObject height="0" width="0"><div style="display: table-cell; white-space: nowrap; line-height: 1.5; max-width: 200px; text-align: center;" class="labelBkg" xmlns="http://www.w3.org/1999/xhtml"><span class="edgeLabel"></span></div></foreignObject></g></g><g class="edgeLabel"><g transform="translate(0, 0)" class="label"><foreignObject height="0" width="0"><div style="display: table-cell; white-space: nowrap; line-height: 1.5; max-width: 200px; text-align: center;" class="labelBkg" xmlns="http://www.w3.org/1999/xhtml"><span class="edgeLabel"></span></div></foreignObject></g></g><g class="edgeLabel"><g transform="translate(0, 0)" class="label"><foreignObject height="0" width="0"><div style="display: table-cell; white-space: nowrap; line-height: 1.5; max-width: 200px; text-align: center;" class="labelBkg" xmlns="http://www.w3.org/1999/xhtml"><span class="edgeLabel"></span></div></foreignObject></g></g><g class="edgeLabel"><g transform="translate(0, 0)" class="label"><foreignObject height="0" width="0"><div style="display: table-cell; white-space: nowrap; line-height: 1.5; max-width: 200px; text-align: center;" class="labelBkg" xmlns="http://www.w3.org/1999/xhtml"><span class="edgeLabel"></span></div></foreignObject></g></g><g class="edgeLabel"><g transform="translate(0, 0)" class="label"><foreignObject height="0" width="0"><div style="display: table-cell; white-space: nowrap; line-height: 1.5; max-width: 200px; text-align: center;" class="labelBkg" xmlns="http://www.w3.org/1999/xhtml"><span class="edgeLabel"></span></div></foreignObject></g></g><g transform="translate(649.33984375, 814.234375)" class="edgeLabel"><g transform="translate(-72.6875, -11.25)" class="label"><foreignObject height="22.5" width="145.375"><div style="display: table-cell; white-space: nowrap; line-height: 1.5; max-width: 200px; text-align: center;" class="labelBkg" xmlns="http://www.w3.org/1999/xhtml"><span class="edgeLabel"><p>se repite cada 10 ms</p></span></div></foreignObject></g></g></g><g class="nodes"><g transform="translate(411.83984375, 34.25)" id="flowchart-A-0" class="node default"><rect height="52.5" width="259.984375" y="-26.25" x="-129.9921875" style="" class="basic label-container"></rect><g transform="translate(-99.9921875, -11.25)" style="" class="label"><rect></rect><foreignObject height="22.5" width="199.984375"><div style="display: table-cell; white-space: nowrap; line-height: 1.5; max-width: 200px; text-align: center;" xmlns="http://www.w3.org/1999/xhtml"><span class="nodeLabel">Unsupported markdown: list</span></div></foreignObject></g></g><g transform="translate(293, 136.75)" id="flowchart-B-1" class="node default"><rect height="52.5" width="259.984375" y="-26.25" x="-129.9921875" style="" class="basic label-container"></rect><g transform="translate(-99.9921875, -11.25)" style="" class="label"><rect></rect><foreignObject height="22.5" width="199.984375"><div style="display: table-cell; white-space: nowrap; line-height: 1.5; max-width: 200px; text-align: center;" xmlns="http://www.w3.org/1999/xhtml"><span class="nodeLabel">Unsupported markdown: list</span></div></foreignObject></g></g><g transform="translate(293, 239.25)" id="flowchart-C-3" class="node default"><rect height="52.5" width="259.984375" y="-26.25" x="-129.9921875" style="" class="basic label-container"></rect><g transform="translate(-99.9921875, -11.25)" style="" class="label"><rect></rect><foreignObject height="22.5" width="199.984375"><div style="display: table-cell; white-space: nowrap; line-height: 1.5; max-width: 200px; text-align: center;" xmlns="http://www.w3.org/1999/xhtml"><span class="nodeLabel">Unsupported markdown: list</span></div></foreignObject></g></g><g transform="translate(293, 441.7421875)" id="flowchart-D-5" class="node default"><polygon transform="translate(-126.2421875,126.2421875)" class="label-container" points="126.2421875,0 252.484375,-126.2421875 126.2421875,-252.484375 0,-126.2421875"></polygon><g transform="translate(-99.9921875, -11.25)" style="" class="label"><rect></rect><foreignObject height="22.5" width="199.984375"><div style="display: table-cell; white-space: nowrap; line-height: 1.5; max-width: 200px; text-align: center;" xmlns="http://www.w3.org/1999/xhtml"><span class="nodeLabel">Unsupported markdown: list</span></div></foreignObject></g></g><g transform="translate(138, 689.234375)" id="flowchart-E-7" class="node default"><rect height="97.5" width="260" y="-48.75" x="-130" style="" class="basic label-container"></rect><g transform="translate(-100, -33.75)" style="" class="label"><rect></rect><foreignObject height="67.5" width="200"><div style="display: table; white-space: break-spaces; line-height: 1.5; max-width: 200px; text-align: center; width: 200px;" xmlns="http://www.w3.org/1999/xhtml"><span class="nodeLabel"><p>EMERGENCY / FAULT<br>se quitan todos los permisos</p></span></div></foreignObject></g></g><g transform="translate(448, 689.234375)" id="flowchart-F-9" class="node default"><rect height="97.5" width="260" y="-48.75" x="-130" style="" class="basic label-container"></rect><g transform="translate(-100, -33.75)" style="" class="label"><rect></rect><foreignObject height="67.5" width="200"><div style="display: table; white-space: break-spaces; line-height: 1.5; max-width: 200px; text-align: center; width: 200px;" xmlns="http://www.w3.org/1999/xhtml"><span class="nodeLabel"><p>Máquina de estados<br>IDLE · AUTO_RUN · AUTO_STOP · MANUAL</p></span></div></foreignObject></g></g><g transform="translate(293, 814.234375)" id="flowchart-G-11" class="node default"><rect height="52.5" width="259.984375" y="-26.25" x="-129.9921875" style="" class="basic label-container"></rect><g transform="translate(-99.9921875, -11.25)" style="" class="label"><rect></rect><foreignObject height="22.5" width="199.984375"><div style="display: table-cell; white-space: nowrap; line-height: 1.5; max-width: 200px; text-align: center;" xmlns="http://www.w3.org/1999/xhtml"><span class="nodeLabel">Unsupported markdown: list</span></div></foreignObject></g></g><g transform="translate(293, 916.734375)" id="flowchart-H-15" class="node default"><rect height="52.5" width="259.984375" y="-26.25" x="-129.9921875" style="" class="basic label-container"></rect><g transform="translate(-99.9921875, -11.25)" style="" class="label"><rect></rect><foreignObject height="22.5" width="199.984375"><div style="display: table-cell; white-space: nowrap; line-height: 1.5; max-width: 200px; text-align: center;" xmlns="http://www.w3.org/1999/xhtml"><span class="nodeLabel">Unsupported markdown: list</span></div></foreignObject></g></g><g transform="translate(293, 1019.234375)" id="flowchart-I-17" class="node default"><rect height="52.5" width="259.984375" y="-26.25" x="-129.9921875" style="" class="basic label-container"></rect><g transform="translate(-99.9921875, -11.25)" style="" class="label"><rect></rect><foreignObject height="22.5" width="199.984375"><div style="display: table-cell; white-space: nowrap; line-height: 1.5; max-width: 200px; text-align: center;" xmlns="http://www.w3.org/1999/xhtml"><span class="nodeLabel">Unsupported markdown: list</span></div></foreignObject></g></g><g transform="translate(293, 1121.734375)" id="flowchart-J-19" class="node default"><rect height="52.5" width="259.984375" y="-26.25" x="-129.9921875" style="" class="basic label-container"></rect><g transform="translate(-99.9921875, -11.25)" style="" class="label"><rect></rect><foreignObject height="22.5" width="199.984375"><div style="display: table-cell; white-space: nowrap; line-height: 1.5; max-width: 200px; text-align: center;" xmlns="http://www.w3.org/1999/xhtml"><span class="nodeLabel">Unsupported markdown: list</span></div></foreignObject></g></g><g transform="translate(293, 1224.234375)" id="flowchart-K-21" class="node default"><rect height="52.5" width="259.984375" y="-26.25" x="-129.9921875" style="" class="basic label-container"></rect><g transform="translate(-99.9921875, -11.25)" style="" class="label"><rect></rect><foreignObject height="22.5" width="199.984375"><div style="display: table-cell; white-space: nowrap; line-height: 1.5; max-width: 200px; text-align: center;" xmlns="http://www.w3.org/1999/xhtml"><span class="nodeLabel">Unsupported markdown: list</span></div></foreignObject></g></g><g transform="translate(411.83984375, 1326.734375)" id="flowchart-L-23" class="node default"><rect height="52.5" width="259.984375" y="-26.25" x="-129.9921875" style="" class="basic label-container"></rect><g transform="translate(-99.9921875, -11.25)" style="" class="label"><rect></rect><foreignObject height="22.5" width="199.984375"><div style="display: table-cell; white-space: nowrap; line-height: 1.5; max-width: 200px; text-align: center;" xmlns="http://www.w3.org/1999/xhtml"><span class="nodeLabel">Unsupported markdown: list</span></div></foreignObject></g></g></g></g></g></svg>